<svg width="135" height="49" viewBox="0 0 135 49" fill="none" xmlns="http://www.w3.org/2000/svg">
<path d="M35.856 42.144C35.856 45.168 34.224 48.192 29.232 48.192C27.312 48.192 24.768 47.28 22.128 44.064L10.272 29.712C9.216 28.368 8.736 27.36 8.736 26.688C8.784 25.44 9.744 25.104 11.52 25.344L26.112 27.216C31.248 27.888 32.928 25.584 32.928 23.088C32.928 20.736 31.104 18.912 27.6 18.912H12.576C7.632 18.912 4.944 21.84 4.944 25.248C4.944 26.16 5.184 27.12 5.568 28.032L10.464 39.552C12.336 43.968 11.76 48.192 6.288 48.192C3.312 48.192 -4.76837e-06 45.888 -4.76837e-06 39.024C-4.76837e-06 22.704 6.864 10.272 21.456 10.272C33.312 10.272 36.144 17.76 36.144 22.08C36.144 25.344 34.944 28.272 28.176 30.672L20.304 33.456C19.152 33.84 18.24 34.416 18.24 35.568C18.24 36.672 19.008 37.056 20.832 37.056L30.288 37.152C33.456 37.2 35.856 39.168 35.856 42.144ZM60.0615 36.288C62.7975 36.24 64.6215 35.712 64.9095 33.264L66.9735 16.272C67.3095 13.632 66.0135 11.952 63.9975 12.336C61.9815 12.72 60.2535 16.368 59.5335 17.856L53.7255 29.76C52.1895 32.928 49.5015 33.552 47.7255 33.552C44.8935 33.552 42.5895 31.2 42.5895 28.224C42.5895 26.16 44.0295 24.288 46.2375 22.512L55.8855 14.832C60.0615 11.52 61.7895 10.272 64.9095 10.272C67.7895 10.272 69.7575 12.336 70.3815 15.6L74.7495 38.688C75.7575 44.064 74.1255 48.192 69.1815 48.192C65.2455 48.192 63.3735 45.696 63.3735 42.768V40.272C63.3735 37.632 61.9815 37.296 60.3015 38.736L55.5975 42.768C53.3895 44.64 49.8375 48.192 45.9015 48.192C43.1175 48.192 39.9975 46.608 39.9975 42.096C39.9975 38.256 43.4535 36.672 47.6775 36.576L60.0615 36.288ZM78.8681 21.648C78.8681 20.88 79.9241 19.584 81.1241 18.192L86.5481 11.952C87.5561 10.8 88.9481 10.272 90.3401 10.272C92.7881 10.272 95.1401 11.952 95.1401 14.832C95.1401 17.52 93.5081 18.768 91.2041 19.584L85.9241 21.408C85.3001 21.6 85.0121 22.032 85.0121 22.512C85.0121 23.328 85.8281 23.328 86.2601 23.28L89.5241 22.896C94.3721 22.32 96.0041 26.4 92.8361 30.048L83.6681 40.512C82.9001 41.376 82.6601 41.76 82.6601 42.24C82.6601 43.2 83.4761 44.016 84.3881 43.632L90.1481 41.136C92.1641 40.272 94.5161 40.56 94.8041 43.344C95.1401 46.56 91.3001 48.192 87.6041 48.192C82.1321 48.192 79.5881 44.544 80.8841 39.744L84.7721 25.536C84.8681 25.2 84.9161 24.912 84.9161 24.672C84.9161 23.568 84.0521 23.184 82.5161 23.184H80.4521C79.2521 23.184 78.8681 22.512 78.8681 21.648ZM87.5081 8.87998C86.5001 9.07198 86.0201 7.87198 86.6441 7.34398L93.6521 1.58398C95.5721 -1.62125e-05 98.4521 0.719983 99.1241 2.97598C99.7001 4.84798 99.0281 6.67198 96.2921 7.19998L87.5081 8.87998ZM130.742 38.208C133.622 39.216 134.582 41.28 134.582 42.912C134.582 45.408 132.998 48.24 129.734 48.24C128.054 48.24 125.51 47.424 123.542 45.36L114.23 35.664C113.846 35.28 113.078 34.704 112.502 34.704C111.638 34.704 111.11 35.376 111.11 37.632V40.896C111.11 44.496 109.43 48.144 105.974 48.144C102.518 48.144 100.118 46.08 100.118 43.392C100.118 41.952 100.742 40.368 102.326 38.784L125.606 15.6C127.046 14.16 125.414 11.904 123.542 13.056L111.158 20.448C108.854 21.84 106.694 22.56 104.918 22.56C102.134 22.56 100.166 20.784 99.9262 16.848C99.6382 12.624 103.094 10.992 107.462 10.992H125.606C131.654 10.992 134.87 13.632 134.87 16.848C134.87 19.776 132.134 23.04 126.566 25.392L115.094 30.24C113.366 30.96 113.27 32.928 115.094 33.456L130.742 38.208Z" fill="#F18446"/>
</svg>
