<?xml version="1.0" encoding="UTF-8"?>
<svg xmlns="http://www.w3.org/2000/svg" version="1.1" width="64" height="64" viewBox="0 0 64 64">
  <defs>
    <style>
      .st0 { isolation: isolate; }
      .st1 { fill: #f18446; }
    </style>
  </defs>
  <g class="st0">
    <g id="Layer_1">
      <path class="st1" d="M21.08,61.34c.3-.56,6.32-6.66,10.92-11.27.12.08.27.07.38-.03l8.52-8.07c.12-.12.13-.31.01-.44l-.07-.08.29-.29c2.09-1.75,1.44-4.32.63-7.57-.19-.75-.39-1.53-.57-2.37-.59-2.72,9.07-10.44,15.46-15.55,1.9-1.52,3.7-2.95,5.02-4.09.02-.02.04-.04.06-.07.76-1.2,1.17-2.52,1.2-3.82.02-.92-.18-1.9-.61-2.89-.14-.33-.66-.9-.88-1.13s-.76-.78-1.08-.94c-.97-.48-1.93-.74-2.86-.76-1.31-.04-2.65.3-3.88,1-.03.02-.05.03-.07.06-1.2,1.26-2.73,2.98-4.35,4.79-5.45,6.11-13.68,15.34-16.37,14.6-.83-.23-1.59-.46-2.34-.69-3.2-.99-5.73-1.77-7.59.22l-.3.28-.07-.08c-.12-.12-.31-.13-.44-.01l-8.52,8.07c-.12.11-.13.3-.02.42-4.85,4.35-11.26,10.02-11.84,10.29-.13.06-.23.17-.25.3-.04.2.08.41.31.5,0,0,0,0,0,0,0,.14.07.27.23.36.16.09.34.16.52.23-.01.17.09.34.28.43-.07.21.04.43.32.53.08.03.15.06.23.08,0,0,0,.01,0,.02-.05.13-.03.27.05.39.24.34.65.49,1.03.58-.05.14,0,.29.1.41.02.02.04.03.06.05.24.19.53.32.82.4,0,0,0,0,0,0-.06.19,0,.4.17.57.06.06.13.12.21.16.13.08.27.14.42.18-.03.04-.06.08-.07.12-.04.12-.02.26.06.36.23.31.61.43.96.48-.08.15-.05.34.08.48.06.06.14.11.22.15.29.11.58.15.85.14-.01.02-.02.03-.03.05-.11.17-.09.38.05.53.05.06.12.1.19.13,0,.18.13.35.35.45.26.11.52.19.8.24-.12.06-.21.16-.24.29-.06.23.1.48.35.56.1.03.2.06.31.08-.02.04-.03.09-.03.14-.01.18.09.35.27.44.26.14.53.24.83.31.01.09.05.18.13.27l.03.03c.15.16.34.27.54.34-.02.1-.02.26.14.43l.02.02c.16.17.35.3.58.4-.05.19.05.39.24.49.26.14.54.15.8.12-.1.18-.17.36-.21.54-.03.13.01.25.1.35.06.06.13.1.21.13.19.06.34.04.46-.01-.03.12-.04.23-.05.35,0,.12.03.23.11.32.1.1.23.14.35.15,0,0,0,.02,0,.02,0,.05,0,.11.01.15,0,.02.01.05.02.07.03.08.07.16.13.23.13.14.32.18.48.1.03.35.13.74.43.99.1.08.23.11.36.08.05-.01.09-.04.13-.07.04.15.09.29.16.43.04.08.09.15.15.21.17.18.37.25.56.2,0,0,0,0,0,0,.07.3.18.59.36.84.02.02.03.04.05.06.11.12.26.16.4.12.06.34.16.69.41.95.04.04.07.07.11.1.11.09.25.11.38.07,0,0,.01,0,.02,0,.02.08.05.16.07.24.09.28.3.41.52.35.08.19.24.31.42.3.06.19.12.36.2.53.08.16.2.25.34.25,0,0,0,0,0,0,.03.08.07.15.12.2.1.1.23.15.36.13.13-.02.25-.11.31-.24ZM58.67,6.29c.69.73.5,2.02-.42,2.89s-2.22.99-2.91.26-.5-2.02.42-2.89,2.22-.99,2.91-.26Z"/>
    </g>
  </g>
</svg>
